<svg xmlns="http://www.w3.org/2000/svg" xmlns:xlink="http://www.w3.org/1999/xlink" width="24" height="24.035" viewBox="0 0 24 24.035">
  <defs>
    <clipPath id="clip-path">
      <rect id="Rectangle_17429" data-name="Rectangle 17429" width="24" height="24.035" fill="#fa8231"/>
    </clipPath>
  </defs>
  <g id="Group_10973" data-name="Group 10973" clip-path="url(#clip-path)">
    <path id="Path_13539" data-name="Path 13539" d="M11.137,18.886V17.218c-.828-.245-1.646-.43-2.421-.729A7.882,7.882,0,0,1,5.388,14a.623.623,0,0,0-.581-.269,4.466,4.466,0,0,1-2.675-.588A4.183,4.183,0,0,1,.016,9.487C-.012,8.057.006,6.626.011,5.2a1.71,1.71,0,0,1,1.761-1.76c.543,0,1.086,0,1.665,0,0-.254,0-.491,0-.729,0-.322,0-.644,0-.966A1.706,1.706,0,0,1,5.167,0Q12.008,0,18.849,0a1.7,1.7,0,0,1,1.722,1.717c.007.561,0,1.123,0,1.714h1.539A1.731,1.731,0,0,1,24,5.337q0,2.012,0,4.023a4.265,4.265,0,0,1-4.377,4.363,1.429,1.429,0,0,0-1.241.54A8.256,8.256,0,0,1,13,17.11c-.035,0-.07.011-.12.019v1.756c.695,0,1.38-.019,2.064.007a5.212,5.212,0,0,1,1.368.167A2.489,2.489,0,0,1,18,21.4c.011.581.008,1.162,0,1.743a.85.85,0,0,1-.9.888q-5.1,0-10.2,0a.848.848,0,0,1-.89-.9,17.324,17.324,0,0,1,.054-2.114,2.5,2.5,0,0,1,2.45-2.134c.865-.015,1.73,0,2.623,0M18.859,1.735H5.15v.2c0,2.234,0,4.468.005,6.7a7.281,7.281,0,0,0,.1,1.119,6.849,6.849,0,0,0,13.6-1.194c.007-1.921,0-3.842,0-5.764V1.735M7.721,22.3h8.568c0-.249,0-.481,0-.712A.88.88,0,0,0,15.3,20.6H10.8c-.731,0-1.463,0-2.194,0a.855.855,0,0,0-.885.875c-.005.267,0,.535,0,.822M19.949,11.987a.136.136,0,0,0,.041,0,2.549,2.549,0,0,0,2.292-2.511c.013-1.385,0-2.771,0-4.157a1.247,1.247,0,0,0-.016-.146h-1.7c0,1.111.008,2.2,0,3.291a7.159,7.159,0,0,1-.089,1.281c-.145.749-.348,1.487-.53,2.243m-15.8-.008a9.5,9.5,0,0,1-.714-4.242c.019-.768,0-1.538,0-2.306,0-.086-.008-.173-.012-.26h-1.7c0,1.5-.036,2.986.011,4.468a2.494,2.494,0,0,0,2.407,2.341" transform="translate(0 0)" fill="#fa8231"/>
  </g>
</svg>
