<svg xmlns="http://www.w3.org/2000/svg" width="24.984" height="24.989" viewBox="0 0 24.984 24.989">
  <g id="Group_10531" data-name="Group 10531" transform="translate(0 2)">
    <path id="Path_13411" data-name="Path 13411" d="M0,.776A1.058,1.058,0,0,1,1.267,0,5.351,5.351,0,0,1,6.25,4.594c.031.233.058.466.09.721H23.87a.983.983,0,0,1,1.085.744,1.044,1.044,0,0,1,.011.433q-.345,1.721-.711,3.437a.969.969,0,0,1-1.017.8.952.952,0,0,1-.907-.892,3,3,0,0,1,.1-.72c.12-.605.25-1.208.379-1.833H6.548c.289,2.662.578,5.312.869,7.988h.271q5.65,0,11.3,0a2.521,2.521,0,0,0,2.35-1.421c.039-.071.076-.144.116-.214a.972.972,0,0,1,1.725.895,4.436,4.436,0,0,1-4.226,2.69q-6.077.006-12.155,0A.991.991,0,0,0,5.713,18.27a.979.979,0,0,0,.927.955c.1.006.2,0,.293,0q6.236,0,12.473,0a2.878,2.878,0,0,1,.55,5.715.963.963,0,0,0-.137.044h-.684A.978.978,0,0,0,19,24.944a2.861,2.861,0,0,1-2.372-3.159c.024-.2.068-.392.1-.589H12.55c.019.088.033.159.05.229a2.849,2.849,0,0,1-1.658,3.323,7.424,7.424,0,0,1-.787.239H9.47a.963.963,0,0,0-.137-.044,2.861,2.861,0,0,1-2.372-3.159c.024-.2.068-.393.105-.606-.145,0-.274,0-.4,0a2.95,2.95,0,0,1-1.374-5.535.278.278,0,0,0,.175-.321c-.155-1.373-.3-2.747-.452-4.12-.224-2.052-.46-4.1-.667-6.157A3.391,3.391,0,0,0,1.169,1.961,1.126,1.126,0,0,1,0,1.166ZM10.738,22.111a.926.926,0,1,0-.934.924.933.933,0,0,0,.934-.924m9.666,0a.926.926,0,1,0-.939.919.933.933,0,0,0,.939-.919" transform="translate(0 -2)" fill="#fa8231"/>
  </g>
</svg>
