<svg xmlns="http://www.w3.org/2000/svg" width="24.7" height="24.669" viewBox="0 0 24.7 24.669">
  <g id="Group_10978" data-name="Group 10978" transform="translate(0.35 0.35)">
    <path id="Path_13540" data-name="Path 13540" d="M0,279.1a2.594,2.594,0,0,1,.836-1.343q3.355-3.337,6.695-6.689c.364-.364.517-.366.875-.008q.845.844,1.689,1.69c.3.3.3.478,0,.773-2.329,2.33-4.67,4.649-6.984,7a1.813,1.813,0,0,1-2.943-.445c-.071-.163-.115-.337-.172-.505V279.1m7.948-7.3c-.035.032-.087.077-.136.126l-6.626,6.63a2.037,2.037,0,0,0-.172.191.962.962,0,0,0,.249,1.41.991.991,0,0,0,1.291-.223q3.324-3.321,6.645-6.645c.047-.048.089-.1.116-.131L7.948,271.8" transform="translate(0 -257.111)" fill="#fa8231" stroke="#fa8231" stroke-width="0.7"/>
    <path id="Path_13541" data-name="Path 13541" d="M167.592,224.175c-.151-.13-.275-.225-.385-.334-.919-.915-1.839-1.827-2.75-2.75a1.776,1.776,0,0,1,2.334-2.677q.1.083.189.175,2.278,2.277,4.555,4.556a2.006,2.006,0,0,1,.058,2.891,2.365,2.365,0,0,1-.525.388c-1.842,1-3.684,2.009-5.536,2.995a1.826,1.826,0,0,1-1.7-3.231c1.152-.623,2.311-1.234,3.467-1.851.075-.04.148-.082.292-.162m3.776.591a1.342,1.342,0,0,0-.424-1.078q-2.256-2.251-4.508-4.5a1.9,1.9,0,0,0-.156-.142.962.962,0,0,0-1.531.475,1,1,0,0,0,.324,1.056q1.67,1.66,3.332,3.328c.144.144.285.305.19.51a.763.763,0,0,1-.32.314c-1.352.73-2.711,1.447-4.064,2.175a1.02,1.02,0,0,0,.945,1.808q2.794-1.5,5.577-3.019a1.138,1.138,0,0,0,.636-.922" transform="translate(-154.635 -206.99)" fill="#fa8231" stroke="#fa8231" stroke-width="0.7"/>
    <path id="Path_13542" data-name="Path 13542" d="M110.715,25.493a2.373,2.373,0,0,1-.189.262q-1.679,1.684-3.363,3.364a1.776,1.776,0,0,1-2.722-2.277,2.794,2.794,0,0,1,.219-.244q2.277-2.279,4.557-4.557a1.952,1.952,0,0,1,2.18-.542,2.4,2.4,0,0,1,.814.527c1.141,1.112,2.265,2.242,3.386,3.374a1.779,1.779,0,1,1-2.528,2.5q-1.073-1.065-2.137-2.138c-.06-.061-.108-.133-.216-.267m3.693,2.226a2.738,2.738,0,0,0,.421-.124.968.968,0,0,0,.212-1.606q-1.668-1.679-3.345-3.349a1.23,1.23,0,0,0-1.943,0q-2.246,2.244-4.49,4.491a1.957,1.957,0,0,0-.216.246.954.954,0,0,0,.605,1.493,1.035,1.035,0,0,0,.969-.345q1.836-1.842,3.678-3.679c.353-.353.505-.353.858,0q1.243,1.242,2.485,2.486a1.173,1.173,0,0,0,.767.383" transform="translate(-98.806 -20.286)" fill="#fa8231" stroke="#fa8231" stroke-width="0.7"/>
    <path id="Path_13543" data-name="Path 13543" d="M302.9,161.857c1.276,0,2.517,0,3.757,0a3.994,3.994,0,0,1,.467.028,1.6,1.6,0,0,1,.074,3.162,2.613,2.613,0,0,1-.419.033q-2.87,0-5.74,0a1.232,1.232,0,0,1-1.365-1.362c0-.437.006-.875,0-1.312a.669.669,0,0,1,.21-.523q1.132-1.12,2.254-2.252a.423.423,0,0,1,.765.32c0,.623,0,1.247,0,1.9m-.807-.961-.061-.033q-.343.35-.686.7c-.285.289-.682.532-.824.88a3.475,3.475,0,0,0-.044,1.227c0,.488.122.61.609.61q2.835,0,5.67,0a1.558,1.558,0,0,0,.371-.037.794.794,0,0,0,.488-1.173.872.872,0,0,0-.838-.407q-2.062,0-4.124,0c-.439,0-.558-.119-.56-.554,0-.4,0-.808,0-1.212" transform="translate(-284.528 -151.394)" fill="#fa8231" stroke="#fa8231" stroke-width="0.7"/>
    <path id="Path_13544" data-name="Path 13544" d="M347.646,3.22a3.219,3.219,0,1,1,3.219,3.214,3.215,3.215,0,0,1-3.219-3.214m3.223,2.41a2.433,2.433,0,0,0,2.411-2.418,2.414,2.414,0,1,0-4.828.012,2.415,2.415,0,0,0,2.417,2.405" transform="translate(-330.083 0)" fill="#fa8231" stroke="#fa8231" stroke-width="0.7"/>
  </g>
</svg>
