<svg xmlns="http://www.w3.org/2000/svg" width="25.325" height="25.342" viewBox="0 0 25.325 25.342">
  <g id="Group_10467" data-name="Group 10467" transform="translate(0.151 0.15)">
    <path id="Path_13382" data-name="Path 13382" d="M10.552,25.041c-.21-.058-.423-.105-.628-.175a5.079,5.079,0,0,1-2.4-1.848,7.275,7.275,0,0,1-.488-.73.325.325,0,0,0-.326-.185q-2.567.01-5.133,0A1.517,1.517,0,0,1,0,20.485a1.873,1.873,0,0,1,.244-.756q1.981-3.466,3.987-6.918c.189-.327.463-.424.726-.265a.509.509,0,0,1,.12.749c-.143.253-.288.5-.454.795H5.46c.7,0,1.4,0,2.1,0a.5.5,0,0,0,.272-.07,4.739,4.739,0,0,1,2.277-.871.559.559,0,0,0,.1-.021,13.2,13.2,0,0,1-.349-1.312,2.622,2.622,0,0,1,.342-1.693.518.518,0,0,1,.5-.286,2.922,2.922,0,0,1,2.86,3.028c-.005.1-.012.193-.021.318.187-.021.36-.049.534-.058a4.839,4.839,0,0,1,3.029.833.776.776,0,0,0,.4.13c.872.012,1.744.006,2.616.006h.271c-.056-.1-.093-.171-.132-.239q-1.624-2.813-3.244-5.627a.339.339,0,0,0-.339-.2q-4.156.009-8.311,0A.347.347,0,0,0,8,8.236c-.2.374-.417.737-.632,1.1a.491.491,0,1,1-.845-.486C8.071,6.164,9.614,3.474,11.178.8a1.517,1.517,0,0,1,2.7.066q2.692,4.649,5.374,9.3,2.7,4.684,5.406,9.37c.14.244.243.509.363.764v.538c-.44,1.053-.773,1.271-1.945,1.271-1.58,0-3.161,0-4.741,0a.36.36,0,0,0-.364.2A6.285,6.285,0,0,1,16,24.436a4.553,4.553,0,0,1-1.582.6h-.733c-.371-.13-.742-.262-1.115-.388a.232.232,0,0,0-.139.008c-.365.124-.729.253-1.093.38ZM18.2,18.067a11.024,11.024,0,0,0-.278-1.4A3.614,3.614,0,0,0,12.8,14.5a.557.557,0,0,1-.6-.011,3.054,3.054,0,0,0-1.445-.4,3.7,3.7,0,0,0-3.815,3.16,6.563,6.563,0,0,0,.731,4.18,5.219,5.219,0,0,0,2.046,2.273,2.167,2.167,0,0,0,2.381.009.671.671,0,0,1,.829,0,2.008,2.008,0,0,0,1.611.293,3.048,3.048,0,0,0,1.351-.7A7.129,7.129,0,0,0,18.2,18.067M16.306,7.037c-.025-.054-.04-.09-.059-.123q-1.615-2.8-3.233-5.6c-.27-.466-.757-.445-1.036.037Q10.39,4.1,8.806,6.847c-.033.057-.058.12-.09.19Zm-9.512,8.03c-.865,0-1.694.005-2.523,0a.318.318,0,0,0-.322.19q-1.408,2.455-2.827,4.9c-.322.558-.086.972.552.973H6.192c.077,0,.155-.006.246-.011a6.546,6.546,0,0,1,.355-6.052m11.428,0a6.563,6.563,0,0,1,.353,6.061c1.66,0,3.288.006,4.916,0a.55.55,0,0,0,.46-.862q-1.456-2.54-2.928-5.071a.26.26,0,0,0-.181-.119c-.861-.008-1.723-.005-2.619-.005m-5.786-1.632a1.927,1.927,0,0,0-1.354-2.575c-.133-.019-.164.041-.2.147a1.92,1.92,0,0,0,1.552,2.428" transform="translate(0 0)" fill="#fa8231" stroke="#fa8231" stroke-width="0.3"/>
    <path id="Path_13383" data-name="Path 13383" d="M20.549,40.822a.487.487,0,1,1,.491-.471.494.494,0,0,1-.491.471" transform="translate(-14.742 -29.277)" fill="#fa8231" stroke="#fa8231" stroke-width="0.3"/>
  </g>
</svg>
