<svg id="Group_10470" data-name="Group 10470" xmlns="http://www.w3.org/2000/svg" width="20.616" height="23.431" viewBox="0 0 20.616 23.431">
  <path id="Path_13384" data-name="Path 13384" d="M20.079,10.4a.334.334,0,0,0,.2.354.664.664,0,0,1,0,1.163.326.326,0,0,0-.192.353c0,2.547.009,5.095,0,7.642a3.327,3.327,0,0,1-1.827,3.1,7.341,7.341,0,0,1-1.223.414H3.573c-.019-.011-.038-.03-.058-.032a3.48,3.48,0,0,1-2.982-3.61c.047-2.514.01-5.03.013-7.545a.29.29,0,0,0-.182-.312.66.66,0,0,1-.02-1.17.343.343,0,0,0,.2-.373c0-2.317-.02-4.634,0-6.951A3.307,3.307,0,0,1,2.681.261,6.621,6.621,0,0,1,3.573,0H17.029c.162.037.326.07.487.113,1.342.356,2.559,1.049,2.547,3.04V5.116h-.607l.09,4.083h.534m-6.062,2.883c-.019.063-.037.113-.05.165a3.757,3.757,0,0,1-7.307.033c-.044-.173-.111-.211-.273-.21-1.411.005-2.822,0-4.233,0-.073,0-.147.007-.228.012,0,.071-.009.124-.009.176,0,2.586-.005,5.171,0,7.757A2.043,2.043,0,0,0,4.031,22.1c.763,0,1.526-.008,2.288.006.218,0,.3-.054.365-.275a3.525,3.525,0,0,1,2.784-2.641,3.748,3.748,0,0,1,4.543,2.9c.955,0,1.9,0,2.845,0a1.3,1.3,0,0,0,.335-.065,2.059,2.059,0,0,0,1.516-2.069q.007-3.844,0-7.688c0-.059-.01-.118-.016-.186ZM18.7,9.2h.848l-.09-4.083-.762-.03-.012-1.911a1.925,1.925,0,0,0-1.763-1.755,5.926,5.926,0,0,0-.845-.024c-.685,0-1.37,0-2.054,0-.021.068-.039.118-.052.17A3.7,3.7,0,0,1,10.326,4.4,3.7,3.7,0,0,1,6.661,1.6c-.045-.179-.121-.206-.277-.2-.6.007-1.205,0-1.808,0a6.219,6.219,0,0,0-.868.022A2.03,2.03,0,0,0,1.919,3.506q-.007,3.466.006,6.932v.224H2.2c1.365.014,2.731.007,4.1.02.243,0,.331-.065.392-.3a3.753,3.753,0,0,1,7.1-.456,7.168,7.168,0,0,1,.247.784h4.659c.008-.09.018-.119.018-.148m-10.656.1h4.522a2.358,2.358,0,0,0-4.522,0m0,1.373a2.356,2.356,0,0,0,2.378,1.689,2.322,2.322,0,0,0,2.134-1.689Zm0,10.022h4.516a2.284,2.284,0,0,0-2.253-1.625,2.285,2.285,0,0,0-2.263,1.625m4.521-20.64H8.05a2.3,2.3,0,0,0,2.229,1.616,2.3,2.3,0,0,0,2.294-1.616" transform="translate(0)" fill="#fa8231"/>
  <ellipse id="Ellipse_872" data-name="Ellipse 872" cx="0.685" cy="0.619" rx="0.685" ry="0.619" transform="translate(18.69 4.444)" fill="#fa8231"/>
  <ellipse id="Ellipse_873" data-name="Ellipse 873" cx="0.685" cy="0.619" rx="0.685" ry="0.619" transform="translate(18.69 8.57)" fill="#fa8231"/>
  <circle id="Ellipse_874" data-name="Ellipse 874" cx="0.619" cy="0.619" r="0.619" transform="translate(18.69 6.507)" fill="#fa8231"/>
</svg>
